<?xml version="1.0" encoding="UTF-8" standalone="no"?>
<!-- Created with Inkscape (http://www.inkscape.org/) -->

<svg
   width="256"
   height="256"
   viewBox="0 0 67.733332 67.733333"
   version="1.1"
   id="svg1"
   xmlns:xlink="http://www.w3.org/1999/xlink"
   xmlns="http://www.w3.org/2000/svg"
   xmlns:svg="http://www.w3.org/2000/svg">
  <defs
     id="defs1">
    <linearGradient
       id="linearGradient11">
      <stop
         style="stop-color:#8159c7;stop-opacity:1;"
         offset="0"
         id="stop11" />
      <stop
         style="stop-color:#ae7fe1;stop-opacity:0.69272459;"
         offset="0.99391842"
         id="stop12" />
    </linearGradient>
    <linearGradient
       xlink:href="#linearGradient11"
       id="linearGradient12"
       x1="1.1058027"
       y1="33.866665"
       x2="66.627527"
       y2="33.866665"
       gradientUnits="userSpaceOnUse"
       gradientTransform="translate(0,-67.73333)" />
  </defs>
  <g
     id="layer1">
    <circle
       style="fill:url(#linearGradient12);stroke:#703db9;stroke-width:0.712009;stroke-opacity:1"
       id="path2"
       cx="33.866665"
       cy="-33.866665"
       r="32.404858"
       transform="rotate(90)" />
    <g
       id="g3"
       transform="translate(0.07290539,1.0279571)">
      <path
         style="fill:#f9f9f9;fill-opacity:0.189404;stroke:#ffffff;stroke-width:0.502708;stroke-opacity:1;opacity:0.82"
         id="path9"
         d="m 33.178361,38.329892 c 0.716412,-0.619704 1.566968,-1.043821 2.416889,-1.445993 0.643239,-0.261842 1.271818,-0.566896 1.930067,-0.791191 0.355579,-0.121161 0.450085,-0.134901 0.804331,-0.218348 0.506865,-0.09992 1.017103,-0.167687 1.533625,-0.180284 0.261009,-0.004 0.521774,0.0079 0.78263,0.01302 0.226464,0.05365 0.443629,0.144024 0.657346,0.235564 0.165241,0.108437 0.347213,0.188384 0.518361,0.286208 0.422646,0.241572 -0.200964,-0.09073 0.264174,0.15313 -5.608802,-3.286358 -3.455517,-2.064451 -2.25882,-1.237027 1.336244,0.885663 2.762406,1.624666 4.150628,2.425067 0.01995,0.0099 0.207414,0.103426 0.235002,0.113578 0.103429,0.03806 0.211993,0.06048 0.317032,0.09383 0.222208,0.07055 0.174522,0.05612 0.392803,0.143166 0.380572,0.17176 0.790255,0.167365 1.198788,0.18166 0.206785,0.0029 0.413406,0.01183 0.620006,0.02051 0.05332,0.0021 0.107566,0.01699 0.159948,0.0068 0.07604,-0.01479 0.143899,-0.05794 0.218049,-0.08034 0.08416,-0.02543 0.170746,-0.04194 0.256119,-0.06291 0.482073,-0.07448 0.95586,-0.191076 1.440376,-0.248383 0.232423,-0.05227 0.47281,-0.05261 0.707326,-0.08687 0.02874,-0.0042 0.172471,-0.03887 0.209682,-0.0477 0.02798,-0.01154 0.05704,-0.02072 0.08393,-0.03458 0.09509,-0.04903 0.06706,-0.04842 0.154439,-0.103756 0.09048,-0.0573 0.189865,-0.09939 0.288881,-0.138846 0.289366,-0.127039 0.584702,-0.240326 0.886719,-0.333354 0.118949,-0.01926 0.239813,-0.07947 0.362482,-0.07985 0.05378,-1.66e-4 0.110344,0.03279 0.157125,0.05584 0,0 -3.188536,-2.345592 -3.188536,-2.345592 v 0 c -0.181507,0.04756 -0.344395,0.149612 -0.52166,0.21031 -0.3087,0.119576 -0.62969,0.203218 -0.933935,0.334666 -0.170741,0.07773 -0.340349,0.168913 -0.524716,0.207941 -0.258302,0.07478 -0.525293,0.121171 -0.788067,0.176678 -0.243596,0.04668 -0.489434,0.08193 -0.732856,0.128583 -0.229491,0.04398 -0.45339,0.116784 -0.685657,0.147754 -0.09242,0.01143 -0.184235,0.03005 -0.277265,0.03427 -0.08044,0.0037 -0.160814,-0.0094 -0.241321,-0.01077 -0.238837,-0.0039 -0.478943,0.0226 -0.717391,-0.0086 -0.160197,-0.01521 -0.272484,-0.02183 -0.430514,-0.0529 -0.243171,-0.0478 -0.473835,-0.142467 -0.706716,-0.224211 -0.328678,-0.117609 -0.652568,-0.24443 -0.952185,-0.425984 -1.19948,-0.625991 -0.08452,-0.04639 3.015676,1.750602 0.05063,0.02934 -0.103611,-0.05454 -0.153831,-0.08458 -0.135202,-0.08086 -0.264803,-0.172119 -0.398352,-0.255669 -1.430694,-0.895755 -2.746943,-1.930633 -4.341008,-2.588721 -0.27142,-0.158546 -0.553162,-0.307379 -0.84787,-0.417118 -0.245999,-0.07883 -0.497158,-0.161592 -0.759214,-0.137581 -0.245721,0.0052 -0.491887,0.02257 -0.734499,0.06287 -0.222981,0.03511 -0.445916,0.07055 -0.668592,0.10754 -0.09508,0.0158 -0.191571,0.02487 -0.285102,0.04813 -0.04674,0.01161 -0.482094,0.175088 -0.49412,0.179557 -0.175455,0.06661 -0.595235,0.224946 -0.754544,0.290068 -0.629367,0.257273 -1.23309,0.569788 -1.834507,0.885713 -0.566123,0.286867 -1.136123,0.562161 -1.721987,0.807104 -0.240213,0.100431 -0.584063,0.236043 -0.845746,0.312399 -0.07973,0.02326 -0.161917,0.03708 -0.242875,0.05562 z"
         transform="translate(-0.07290539,-1.0279571)" />
      <path
         style="fill:#f9f9f9;fill-opacity:0.189404;stroke:#ffffff;stroke-width:0.502708;stroke-opacity:1;opacity:0.82"
         id="path8"
         d="m 32.104584,31.295502 c 0.121084,-0.08457 0.270444,-0.105336 0.402534,-0.165253 0.472538,-0.214339 -0.142652,0.02058 0.47896,-0.235543 0.134733,-0.05551 0.273036,-0.101936 0.409556,-0.152902 0.766866,-0.22615 1.560566,-0.333299 2.336149,-0.523037 0.523436,-0.128804 1.031039,-0.310446 1.552086,-0.448016 0.402748,-0.128445 0.805489,-0.248679 1.221671,-0.325115 0.457052,-0.09528 0.919295,-0.165581 1.386178,-0.180718 0.31922,0.0026 0.645843,-0.0089 0.95839,0.06983 0.156353,0.0394 0.284088,0.09957 0.432287,0.1616 0.293193,0.131524 0.585785,0.263025 0.862401,0.427193 0.05711,0.03389 0.22774,0.136689 0.170164,0.1036 -1.034253,-0.594373 -2.066829,-1.191654 -3.100247,-1.78748 0.393732,0.223417 0.73546,0.523195 1.086358,0.806207 1.214583,0.879493 0.376166,0.281032 3.614121,2.073722 0.05314,0.02942 0.11634,0.03505 0.175107,0.0504 0.166584,0.04351 0.32072,0.05019 0.492056,0.05255 0.424257,-0.01556 0.849654,0.0058 1.273326,-0.0191 0.247859,-0.03325 0.492545,-0.08525 0.738275,-0.130739 0.07668,-0.01418 0.1544,-0.02313 0.230356,-0.04077 0.144368,-0.03353 0.260025,-0.07952 0.398346,-0.129352 0.05622,-0.02403 0.114081,-0.04456 0.168672,-0.07211 0.111607,-0.05631 0.212061,-0.130048 0.316326,-0.198099 0.205128,-0.133879 0.409876,-0.267062 0.618968,-0.394718 0.545796,-0.337407 1.135455,-0.589942 1.716834,-0.857226 0.332931,-0.16986 0.673216,-0.324475 1.00838,-0.489733 0,0 -3.192886,-2.076818 -3.192886,-2.076818 v 0 c -0.292526,0.192857 -0.601427,0.355904 -0.913418,0.515101 -0.592934,0.277265 -1.187789,0.550188 -1.764242,0.86119 -0.375285,0.194937 -0.749567,0.39488 -1.137838,0.562734 -0.415613,0.141542 -0.847495,0.227309 -1.28865,0.216837 -0.421648,0.0089 -0.84581,0.01717 -1.264203,-0.04571 -0.14922,-0.03142 -0.293555,-0.06716 -0.434983,-0.125624 -0.04925,-0.02035 -0.19131,-0.09359 -0.145301,-0.06669 2.974443,1.738418 4.211886,2.343825 2.95271,1.723025 -0.383561,-0.249791 -0.721768,-0.554987 -1.080172,-0.837848 -1.477267,-0.85552 -2.880863,-1.855822 -4.48764,-2.445155 -0.08319,-0.02297 -0.165217,-0.0507 -0.249579,-0.0689 -0.402606,-0.08688 -0.820304,-0.05334 -1.228114,-0.04667 -0.483658,0.03432 -0.961475,0.133479 -1.438923,0.215027 -0.417034,0.09839 -0.833231,0.201048 -1.231077,0.363627 -0.493411,0.182615 -1.003954,0.304863 -1.505956,0.460949 -0.731999,0.217689 -1.461021,0.450043 -2.206312,0.61844 -0.105611,0.02252 -0.747948,0.158472 -0.893649,0.192878 -0.1851,0.04371 -0.361847,0.109906 -0.545367,0.158092 -0.05041,0.01323 -0.101738,0.02273 -0.152607,0.03409 z"
         transform="translate(-0.07290539,-1.0279571)" />
      <path
         style="fill:#f9f9f9;fill-opacity:0.189404;stroke:#ffffff;stroke-width:0.502708;stroke-opacity:1;opacity:0.82"
         id="path7"
         d="m 31.791098,23.895482 c 0.524234,-0.449144 1.179308,-0.698992 1.809718,-0.957643 0.20996,-0.08615 0.419711,-0.172803 0.629565,-0.259204 1.146752,-0.443842 2.321984,-0.811111 3.502242,-1.154409 0.54863,-0.151445 1.107744,-0.282166 1.676096,-0.332526 0.356648,-0.0316 0.443219,-0.01946 0.799772,-0.01077 0.401151,0.02632 0.800036,0.109071 1.16047,0.292175 0.06612,0.03359 0.257204,0.147785 0.192784,0.111049 -1.030799,-0.587796 -2.061276,-1.176155 -3.091913,-1.764232 0.263464,0.145846 0.508735,0.321588 0.736272,0.518339 0.259794,0.209122 0.52016,0.418023 0.785458,0.620193 1.252146,0.841415 2.643296,1.57199 3.918836,2.297795 0.08605,0.04897 0.216284,0.06651 0.310663,0.08503 0.27886,0.07035 0.54065,-0.05385 0.802399,-0.137969 0.324956,-0.104426 0.340903,-0.11094 0.671777,-0.221795 0.630852,-0.180082 1.204521,-0.499432 1.797609,-0.770515 0.153723,-0.07026 0.309446,-0.136063 0.464171,-0.204095 0.67586,-0.29842 1.359594,-0.578042 2.044285,-0.855378 0,0 -2.962005,-1.968272 -2.962005,-1.968272 v 0 c -0.659807,0.321551 -1.335566,0.606657 -2.02824,0.850707 -0.786538,0.288687 -1.564262,0.60196 -2.357888,0.870341 -0.486478,0.129661 -0.999987,0.269285 -1.485661,0.06458 -1.019763,-0.508707 -4.491252,-2.581118 2.893665,1.682965 0.05515,0.03184 -0.107889,-0.06776 -0.163406,-0.09894 -0.05577,-0.03133 -0.114401,-0.05735 -0.170278,-0.08849 -0.05166,-0.02879 -0.101457,-0.0608 -0.152186,-0.0912 -0.267046,-0.176868 -0.514898,-0.37769 -0.763754,-0.578858 -0.254982,-0.206695 -0.495165,-0.43488 -0.777822,-0.605395 -1.151258,-0.65811 -2.296409,-1.327021 -3.453776,-1.974331 -0.06368,-0.03561 -0.136419,-0.05222 -0.206414,-0.0728 -0.362636,-0.106609 -0.745003,-0.111634 -1.119693,-0.104511 -0.32775,0.01231 -0.498769,0.01157 -0.827138,0.05364 -0.562568,0.07209 -1.105048,0.240931 -1.637408,0.431088 -1.133105,0.397215 -2.243132,0.854817 -3.3728,1.261167 -0.620035,0.206743 -1.238512,0.419001 -1.861436,0.616963 -0.06962,0.02212 -0.67428,0.211798 -0.808723,0.241093 -0.06219,0.01355 -0.126622,0.01319 -0.189931,0.01978 z"
         transform="translate(-0.07290539,-1.0279571)" />
      <rect
         style="fill:#f9f9f9;fill-opacity:0.189404;stroke:#ffffff;stroke-width:0.669676;stroke-opacity:1;opacity:0.82"
         id="rect2-5"
         width="34.496025"
         height="28.778086"
         x="22.072243"
         y="13.814548" />
      <rect
         style="fill:#ffffff;fill-opacity:0.22949921;stroke:#ffffff;stroke-width:0.669676;stroke-opacity:1;opacity:0.6"
         id="rect2"
         width="34.496025"
         height="28.778086"
         x="12.066401"
         y="23.021744"
         transform="translate(-1.0471458,0.06304204)" />
    </g>
    <path
       style="fill:#f9f9f9;fill-opacity:0.189404;stroke:#ffffff;stroke-width:0.502708;stroke-opacity:1;opacity:0.6"
       id="path9-2"
       d="m 21.195741,49.149862 c 0.716412,-0.619704 1.566968,-1.043821 2.416889,-1.445993 0.643239,-0.261842 1.271818,-0.566896 1.930067,-0.791191 0.355579,-0.121161 0.450085,-0.134901 0.804331,-0.218348 0.506865,-0.09992 1.017103,-0.167687 1.533625,-0.180284 0.261009,-0.004 0.521774,0.0079 0.78263,0.01302 0.226464,0.05365 0.443629,0.144024 0.657346,0.235564 0.165241,0.108437 0.347213,0.188384 0.518361,0.286208 0.422646,0.241572 -0.200964,-0.09073 0.264174,0.15313 -5.608802,-3.286358 -3.455517,-2.064451 -2.25882,-1.237027 1.336244,0.885663 2.762406,1.624666 4.150628,2.425067 0.01995,0.0099 0.207414,0.103426 0.235002,0.113578 0.103429,0.03806 0.211993,0.06048 0.317032,0.09383 0.222208,0.07055 0.174522,0.05612 0.392803,0.143166 0.380572,0.17176 0.790255,0.167365 1.198788,0.18166 0.206785,0.0029 0.413406,0.01183 0.620006,0.02051 0.05332,0.0021 0.107566,0.01699 0.159948,0.0068 0.07604,-0.01479 0.143899,-0.05794 0.218049,-0.08034 0.08416,-0.02543 0.170746,-0.04194 0.256119,-0.06291 0.482073,-0.07448 0.95586,-0.191076 1.440376,-0.248383 0.232423,-0.05227 0.47281,-0.05261 0.707326,-0.08687 0.02874,-0.0042 0.172471,-0.03887 0.209682,-0.0477 0.02798,-0.01154 0.05704,-0.02072 0.08393,-0.03458 0.09509,-0.04903 0.06706,-0.04842 0.154439,-0.103756 0.09048,-0.0573 0.189865,-0.09939 0.288881,-0.138846 0.289366,-0.127039 0.584702,-0.240326 0.886719,-0.333354 0.118949,-0.01926 0.239813,-0.07947 0.362482,-0.07985 0.05378,-1.66e-4 0.110344,0.03279 0.157125,0.05584 0,0 -3.188536,-2.345592 -3.188536,-2.345592 v 0 c -0.181507,0.04756 -0.344395,0.149612 -0.52166,0.21031 -0.3087,0.119576 -0.62969,0.203218 -0.933935,0.334666 -0.170741,0.07773 -0.340349,0.168913 -0.524716,0.207941 -0.258302,0.07478 -0.525293,0.121171 -0.788067,0.176678 -0.243596,0.04668 -0.489434,0.08193 -0.732856,0.128583 -0.229491,0.04398 -0.45339,0.116784 -0.685657,0.147754 -0.09242,0.01143 -0.184235,0.03005 -0.277265,0.03427 -0.08044,0.0037 -0.160814,-0.0094 -0.241321,-0.01077 -0.238837,-0.0039 -0.478943,0.0226 -0.717391,-0.0086 -0.160197,-0.01521 -0.272484,-0.02183 -0.430514,-0.0529 -0.243171,-0.0478 -0.473835,-0.142467 -0.706716,-0.224211 -0.328678,-0.117609 -0.652568,-0.24443 -0.952185,-0.425984 -1.19948,-0.625991 -0.08452,-0.04639 3.015676,1.750602 0.05063,0.02934 -0.103611,-0.05454 -0.153831,-0.08458 -0.135202,-0.08086 -0.264803,-0.172119 -0.398352,-0.255669 -1.430694,-0.895755 -2.746943,-1.930633 -4.341008,-2.588721 -0.27142,-0.158546 -0.553162,-0.307379 -0.84787,-0.417118 -0.245999,-0.07883 -0.497158,-0.161592 -0.759214,-0.137581 -0.245721,0.0052 -0.491887,0.02257 -0.734499,0.06287 -0.222981,0.03511 -0.445916,0.07055 -0.668592,0.10754 -0.09508,0.0158 -0.191571,0.02487 -0.285102,0.04813 -0.04674,0.01161 -0.482094,0.175088 -0.49412,0.179557 -0.175455,0.06661 -0.595235,0.224946 -0.754544,0.290068 -0.629367,0.257273 -1.23309,0.569788 -1.834507,0.885713 -0.566123,0.286867 -1.136123,0.562161 -1.721987,0.807104 -0.240213,0.100431 -0.584063,0.236043 -0.845746,0.312399 -0.07973,0.02326 -0.161917,0.03708 -0.242875,0.05562 z" />
    <path
       style="fill:#f9f9f9;fill-opacity:0.189404;stroke:#ffffff;stroke-width:0.502708;stroke-opacity:1;opacity:0.6"
       id="path8-9"
       d="m 20.121964,42.115472 c 0.121084,-0.08457 0.270444,-0.105336 0.402534,-0.165253 0.472538,-0.214339 -0.142652,0.02058 0.47896,-0.235543 0.134733,-0.05551 0.273036,-0.101936 0.409556,-0.152902 0.766866,-0.22615 1.560566,-0.333299 2.336149,-0.523037 0.523436,-0.128804 1.031039,-0.310446 1.552086,-0.448016 0.402748,-0.128445 0.805489,-0.248679 1.221671,-0.325115 0.457052,-0.09528 0.919295,-0.165581 1.386178,-0.180718 0.31922,0.0026 0.645843,-0.0089 0.95839,0.06983 0.156353,0.0394 0.284088,0.09957 0.432287,0.1616 0.293193,0.131524 0.585785,0.263025 0.862401,0.427193 0.05711,0.03389 0.22774,0.136689 0.170164,0.1036 -1.034253,-0.594373 -2.066829,-1.191654 -3.100247,-1.78748 0.393732,0.223417 0.73546,0.523195 1.086358,0.806207 1.214583,0.879493 0.376166,0.281032 3.614121,2.073722 0.05314,0.02942 0.11634,0.03505 0.175107,0.0504 0.166584,0.04351 0.32072,0.05019 0.492056,0.05255 0.424257,-0.01556 0.849654,0.0058 1.273326,-0.0191 0.247859,-0.03325 0.492545,-0.08525 0.738275,-0.130739 0.07668,-0.01418 0.1544,-0.02313 0.230356,-0.04077 0.144368,-0.03353 0.260025,-0.07952 0.398346,-0.129352 0.05622,-0.02403 0.114081,-0.04456 0.168672,-0.07211 0.111607,-0.05631 0.212061,-0.130048 0.316326,-0.198099 0.205128,-0.133879 0.409876,-0.267062 0.618968,-0.394718 0.545796,-0.337407 1.135455,-0.589942 1.716834,-0.857226 0.332931,-0.16986 0.673216,-0.324475 1.00838,-0.489733 0,0 -3.192886,-2.076818 -3.192886,-2.076818 v 0 c -0.292526,0.192857 -0.601427,0.355904 -0.913418,0.515101 -0.592934,0.277265 -1.187789,0.550188 -1.764242,0.86119 -0.375285,0.194937 -0.749567,0.39488 -1.137838,0.562734 -0.415613,0.141542 -0.847495,0.227309 -1.28865,0.216837 -0.421648,0.0089 -0.84581,0.01717 -1.264203,-0.04571 -0.14922,-0.03142 -0.293555,-0.06716 -0.434983,-0.125624 -0.04925,-0.02035 -0.19131,-0.09359 -0.145301,-0.06669 2.974443,1.738418 4.211886,2.343825 2.95271,1.723025 -0.383561,-0.249791 -0.721768,-0.554987 -1.080172,-0.837848 -1.477267,-0.85552 -2.880863,-1.855822 -4.48764,-2.445155 -0.08319,-0.02297 -0.165217,-0.0507 -0.249579,-0.0689 -0.402606,-0.08688 -0.820304,-0.05334 -1.228114,-0.04667 -0.483658,0.03432 -0.961475,0.133479 -1.438923,0.215027 -0.417034,0.09839 -0.833231,0.201048 -1.231077,0.363627 -0.493411,0.182615 -1.003954,0.304863 -1.505956,0.460949 -0.731999,0.217689 -1.461021,0.450043 -2.206312,0.61844 -0.105611,0.02252 -0.747948,0.158472 -0.893649,0.192878 -0.1851,0.04371 -0.361847,0.109906 -0.545367,0.158092 -0.05041,0.01323 -0.101738,0.02273 -0.152607,0.03409 z" />
    <path
       style="fill:#f9f9f9;fill-opacity:0.189404;stroke:#ffffff;stroke-width:0.502708;stroke-opacity:1;opacity:0.6"
       id="path7-1"
       d="m 19.808478,34.715452 c 0.524234,-0.449144 1.179308,-0.698992 1.809718,-0.957643 0.20996,-0.08615 0.419711,-0.172803 0.629565,-0.259204 1.146752,-0.443842 2.321984,-0.811111 3.502242,-1.154409 0.54863,-0.151445 1.107744,-0.282166 1.676096,-0.332526 0.356648,-0.0316 0.443219,-0.01946 0.799772,-0.01077 0.401151,0.02632 0.800036,0.109071 1.16047,0.292175 0.06612,0.03359 0.257204,0.147785 0.192784,0.111049 -1.030799,-0.587796 -2.061276,-1.176155 -3.091913,-1.764232 0.263464,0.145846 0.508735,0.321588 0.736272,0.518339 0.259794,0.209122 0.52016,0.418023 0.785458,0.620193 1.252146,0.841415 2.643296,1.57199 3.918836,2.297795 0.08605,0.04897 0.216284,0.06651 0.310663,0.08503 0.27886,0.07035 0.54065,-0.05385 0.802399,-0.137969 0.324956,-0.104426 0.340903,-0.11094 0.671777,-0.221795 0.630852,-0.180082 1.204521,-0.499432 1.797609,-0.770515 0.153723,-0.07026 0.309446,-0.136063 0.464171,-0.204095 0.67586,-0.29842 1.359594,-0.578042 2.044285,-0.855378 0,0 -2.962005,-1.968272 -2.962005,-1.968272 v 0 c -0.659807,0.321551 -1.335566,0.606657 -2.02824,0.850707 -0.786538,0.288687 -1.564262,0.60196 -2.357888,0.870341 -0.486478,0.129661 -0.999987,0.269285 -1.485661,0.06458 -1.019763,-0.508707 -4.491252,-2.581118 2.893665,1.682965 0.05515,0.03184 -0.107889,-0.06776 -0.163406,-0.09894 -0.05577,-0.03133 -0.114401,-0.05735 -0.170278,-0.08849 -0.05166,-0.02879 -0.101457,-0.0608 -0.152186,-0.0912 -0.267046,-0.176868 -0.514898,-0.37769 -0.763754,-0.578858 -0.254982,-0.206695 -0.495165,-0.43488 -0.777822,-0.605395 -1.151258,-0.65811 -2.296409,-1.327021 -3.453776,-1.974331 -0.06368,-0.03561 -0.136419,-0.05222 -0.206414,-0.0728 -0.362636,-0.106609 -0.745003,-0.111634 -1.119693,-0.104511 -0.32775,0.01231 -0.498769,0.01157 -0.827138,0.05364 -0.562568,0.07209 -1.105048,0.240931 -1.637408,0.431088 -1.133105,0.397215 -2.243132,0.854817 -3.3728,1.261167 -0.620035,0.206743 -1.238512,0.419001 -1.861436,0.616963 -0.06962,0.02212 -0.67428,0.211798 -0.808723,0.241093 -0.06219,0.01355 -0.126622,0.01319 -0.189931,0.01978 z" />
  </g>
</svg>
